<?xml version="1.0" encoding="utf-8"?>
<!-- Generator: Adobe Illustrator 26.3.1, SVG Export Plug-In . SVG Version: 6.00 Build 0)  -->
<svg version="1.1" id="Calque_1" xmlns="http://www.w3.org/2000/svg" xmlns:xlink="http://www.w3.org/1999/xlink" x="0px" y="0px"
	 viewBox="0 0 222.03 116.95" style="enable-background:new 0 0 222.03 116.95;" xml:space="preserve">
<style type="text/css">
	.st0{fill:#020203;}
</style>
<g>
	<g>
		<g>
			<g>
				<g>
					<path class="st0" d="M209.26,40.54c0,0.03-0.34,0.11-1.03,0.25c-0.69,0.14-1.71,0.33-3.05,0.56c-2.69,0.47-6.66,1.1-11.79,1.86
						c-10.25,1.5-25.13,3.45-43.57,5.4c-18.44,1.97-40.45,3.84-64.92,5.56c-24.47,1.74-51.39,3.58-79.72,4.84l0-1.6
						c0.54,0.04,1.03,0.11,1.54,0.21c2.77,0.56,5.32,1.66,7.7,3c2.38,1.34,4.57,2.96,6.61,4.71c2.02,1.77,3.88,3.69,5.6,5.7
						c0.86,1,1.64,2.1,2.44,3.15c0.69,1.12,1.47,2.2,2.08,3.36c2.57,4.58,4.38,9.44,5.67,14.34c1.26,4.91,2.11,9.81,2.41,14.74
						l-1.52-0.03c0.87-9.76,2.19-19.09,3.67-28.03c1.49-8.93,3.18-17.43,5.04-25.44c1.86-8.01,3.88-15.53,6.11-22.45
						c1.1-3.47,2.26-6.78,3.45-9.94c1.2-3.16,2.42-6.16,3.79-8.98l0.93,0.39c-2.51,7.08-6.04,12.9-9.68,17.48
						c-3.65,4.58-7.38,7.96-10.57,10.44c-3.21,2.48-5.9,4.08-7.75,5.08c-0.92,0.5-1.65,0.84-2.14,1.06
						c-0.49,0.21-0.75,0.3-0.76,0.28c-0.01-0.02,0.23-0.15,0.7-0.41c0.47-0.26,1.17-0.63,2.06-1.17c1.8-1.07,4.42-2.74,7.54-5.26
						c3.12-2.53,6.75-5.93,10.29-10.5c3.53-4.56,6.95-10.33,9.35-17.32l0.93,0.39c-2.59,5.54-4.86,11.92-7.02,18.82
						c-2.17,6.9-4.13,14.4-5.95,22.39c-1.81,7.99-3.46,16.48-4.91,25.38c-1.44,8.9-2.73,18.24-3.57,27.91l-1.52-0.03
						c-0.29-4.75-1.14-9.62-2.39-14.41c-1.27-4.79-3.05-9.53-5.54-13.95c-0.6-1.12-1.35-2.15-2.01-3.23
						c-0.78-1.01-1.51-2.05-2.35-3.02c-1.68-1.95-3.48-3.82-5.43-5.53c-1.97-1.69-4.07-3.24-6.35-4.52
						c-2.26-1.27-4.7-2.31-7.23-2.82c-0.45-0.09-0.93-0.16-1.28-0.18l0-1.6c28.28-1.26,55.21-3.05,79.68-4.71
						c24.47-1.64,46.47-3.39,64.91-5.22c18.44-1.8,33.33-3.58,43.6-4.89c5.13-0.68,9.12-1.21,11.82-1.56
						c1.35-0.18,2.38-0.31,3.08-0.41C208.9,40.55,209.26,40.51,209.26,40.54z"/>
				</g>
			</g>
		</g>
	</g>
	<g>
		<g>
			<g>
				<g>
					<path class="st0" d="M105.08,43.86c0.05,0.02-0.09,0.45-0.44,1.24c-0.36,0.78-0.91,1.93-1.8,3.32
						c-0.45,0.69-0.99,1.45-1.71,2.19c-0.37,0.37-0.78,0.74-1.32,1.02c-0.52,0.28-1.25,0.48-1.96,0.21
						c-0.34-0.12-0.71-0.38-0.91-0.76c-0.2-0.38-0.22-0.78-0.19-1.14c0.07-0.73,0.32-1.37,0.6-2c0.59-1.26,1.36-2.45,2.28-3.66
						l0.87,0.66c-0.84,1.19-1.75,2.39-2.77,3.62c-1.03,1.22-2.12,2.49-3.54,3.63c-0.36,0.28-0.75,0.55-1.23,0.77
						c-0.24,0.11-0.52,0.2-0.86,0.22c-0.32,0.03-0.79-0.06-1.12-0.41c-0.32-0.35-0.38-0.73-0.41-1.03
						c-0.01-0.29,0.01-0.57,0.05-0.82c0.08-0.51,0.22-0.97,0.38-1.43c0.64-1.82,1.51-3.51,2.49-5.24l1.22,0.77
						c-0.93,1.38-1.91,2.73-3.01,4.09c-1.12,1.33-2.24,2.7-3.88,3.82c-0.43,0.26-0.89,0.54-1.57,0.62
						c-0.16,0.02-0.36,0.01-0.55-0.02c-0.21-0.06-0.43-0.11-0.61-0.25c-0.37-0.24-0.59-0.68-0.65-1.08c-0.08-0.69,0.06-1.2,0.2-1.69
						c0.15-0.48,0.33-0.93,0.53-1.38c0.8-1.75,1.78-3.36,2.86-4.97l1.32,0.89c-1.56,2.31-3.26,4.67-5.39,6.85
						c-0.8,0.76-1.55,1.54-2.81,2.03c-0.31,0.12-0.73,0.19-1.16,0.12c-0.42-0.05-0.97-0.38-1.18-0.83
						c-0.23-0.47-0.23-0.84-0.21-1.17c0.02-0.33,0.07-0.63,0.14-0.91c0.29-1.12,0.74-2.06,1.21-3c0.48-0.93,0.98-1.81,1.54-2.68
						l1.32,0.86c-1.07,1.56-2.17,3.02-3.4,4.38c-0.61,0.68-1.26,1.33-1.96,1.93c-0.71,0.59-1.47,1.16-2.47,1.5
						c-0.26,0.07-0.5,0.17-0.81,0.15c-0.3,0.01-0.59,0.01-0.9-0.09c-0.31-0.11-0.66-0.3-0.88-0.61c-0.23-0.3-0.34-0.64-0.37-0.93
						c-0.1-1.17,0.27-1.98,0.57-2.8c0.68-1.61,1.53-3,2.44-4.35l1.15,0.81c-1.33,1.8-2.71,3.43-4.17,4.92
						c-0.73,0.74-1.49,1.43-2.31,2.04c-0.83,0.6-1.69,1.18-2.81,1.37c-0.57,0.06-1.2,0.07-1.82-0.46c-0.28-0.29-0.4-0.69-0.41-1
						c-0.01-0.32,0.04-0.59,0.11-0.84c0.3-0.98,0.78-1.72,1.26-2.45c0.97-1.42,2-2.63,3.01-3.73l0.71,0.65
						c-3.06,3.31-5.86,5.57-7.93,6.86c-2.07,1.31-3.37,1.65-3.4,1.56c-0.03-0.08,1.17-0.57,3.11-1.99c1.94-1.4,4.58-3.73,7.5-7.08
						l0.71,0.65c-0.94,1.09-1.93,2.31-2.81,3.68c-0.43,0.68-0.86,1.42-1.06,2.15c-0.05,0.18-0.07,0.35-0.06,0.48
						c0.02,0.13,0.04,0.18,0.08,0.22c0.08,0.07,0.46,0.17,0.79,0.1c0.72-0.13,1.51-0.63,2.24-1.19c0.73-0.57,1.44-1.24,2.13-1.96
						c1.37-1.44,2.71-3.07,3.96-4.81l1.15,0.81c-0.83,1.27-1.65,2.66-2.24,4.11c-0.28,0.7-0.53,1.52-0.46,2.04
						c0.06,0.27,0.07,0.25,0.23,0.33c0.1,0.04,0.23,0.02,0.37,0.01c0.12,0.03,0.29-0.05,0.44-0.09c0.63-0.22,1.31-0.68,1.93-1.22
						c0.62-0.55,1.23-1.15,1.8-1.8c1.15-1.29,2.24-2.73,3.24-4.21l1.32,0.86c-1,1.63-2.03,3.44-2.52,5.21
						c-0.05,0.22-0.09,0.43-0.1,0.61c-0.02,0.18,0.03,0.34,0.03,0.34c0.02,0.01-0.04,0,0.05,0.01c0.07,0,0.19,0.01,0.36-0.06
						c0.7-0.26,1.5-0.97,2.2-1.66c1.98-2.02,3.69-4.37,5.2-6.59l1.32,0.89c-1.03,1.52-2,3.12-2.74,4.71
						c-0.18,0.4-0.34,0.8-0.46,1.19c-0.12,0.38-0.19,0.78-0.16,0.99c0.01,0.05,0.01,0.04,0.01,0.05L86,52.02
						c0.03-0.01,0.06,0.01,0.12,0c0.22-0.02,0.57-0.17,0.89-0.38c1.32-0.88,2.48-2.21,3.55-3.48c1.07-1.29,2.06-2.62,2.96-3.94
						l1.22,0.77c-0.95,1.63-1.84,3.31-2.44,4.95c-0.15,0.41-0.27,0.82-0.34,1.2c-0.04,0.19-0.04,0.37-0.05,0.52
						c0,0.15,0.08,0.19,0.01,0.22c-0.05,0.07,0.03-0.07,0.02-0.03c0.02,0.01,0.05,0.01,0.1,0.01c0.1,0,0.25-0.04,0.4-0.11
						c0.32-0.14,0.65-0.35,0.97-0.59c1.28-0.99,2.38-2.21,3.41-3.38c1.02-1.18,1.95-2.36,2.8-3.49l0.87,0.66
						c-0.89,1.11-1.68,2.27-2.25,3.4c-0.56,1.09-0.91,2.45-0.09,2.67c0.82,0.34,1.79-0.34,2.46-0.96c0.7-0.65,1.25-1.36,1.73-2.01
						C104.21,45.44,104.96,43.79,105.08,43.86z"/>
				</g>
			</g>
		</g>
	</g>
	<g>
		<g>
			<g>
				<g>
					<path class="st0" d="M190.31,53.03c0,0.04-0.64,0.1-1.88,0.2c-1.24,0.08-3.08,0.21-5.46,0.37c-4.77,0.32-11.74,0.77-20.51,1.47
						c-8.78,0.69-19.37,1.63-31.37,2.91c-6.01,0.62-12.4,1.26-19.13,1.59c-3.36,0.18-6.82,0.25-10.35,0.19
						c-1.77-0.05-3.56-0.12-5.37-0.32c-0.91-0.09-1.82-0.22-2.74-0.4c-0.46-0.08-0.92-0.2-1.39-0.33c-0.23-0.07-0.47-0.16-0.71-0.24
						c-0.27-0.12-0.44-0.15-0.83-0.44l0.82-1.23c3.94,2.06,7.75,4.46,11.38,7.35c1.8,1.46,3.56,3.02,5.15,4.8
						c1.58,1.78,3.01,3.8,4.03,6.04c1,2.19,1.88,4.46,2.52,6.84c0.62,2.38,1.1,4.87,0.92,7.46c-0.09,1.29-0.32,2.6-0.88,3.84
						c-0.52,1.24-1.52,2.38-2.6,3.13c-0.55,0.4-1.16,0.78-1.97,0.96c-0.41,0.08-0.91,0.09-1.39-0.13c-0.25-0.11-0.46-0.24-0.62-0.43
						c-0.19-0.18-0.31-0.37-0.41-0.56c-0.39-0.78-0.44-1.51-0.44-2.19c-0.01-0.35,0.01-0.68,0.05-1.01
						c0.02-0.34,0.07-0.66,0.13-0.98c0.28-1.67,0.77-3.26,1.26-4.8c0.5-1.54,1.01-3.07,1.54-4.58c1.05-3.03,2.15-6.01,3.25-8.95
						c2.22-5.89,4.5-11.62,6.82-17.19c1.18-2.77,2.34-5.52,3.5-8.22c1.13-2.71,2.25-5.39,3.35-8.03c2.2-5.28,4.3-10.44,6.7-15.3
						c0.61-1.21,1.24-2.41,1.95-3.56c0.35-0.58,0.73-1.14,1.16-1.69c0.43-0.54,0.89-1.08,1.59-1.52c0.17-0.11,0.4-0.19,0.61-0.27
						c0.25-0.04,0.53-0.09,0.72-0.04c0.21,0.03,0.42,0.05,0.62,0.11c0.2,0.09,0.41,0.19,0.6,0.29c0.77,0.54,1.05,1.38,1.18,2.1
						c0.16,1.46-0.15,2.77-0.52,4.01c-0.8,2.46-1.99,4.65-3.27,6.7c-1.29,2.04-2.67,3.95-4.14,5.72c-2.94,3.53-6.14,6.5-9.36,9.01
						c-1.61,1.25-3.24,2.39-4.89,3.37c-0.83,0.49-1.66,0.94-2.53,1.32c-0.43,0.19-0.88,0.36-1.34,0.49
						c-0.25,0.07-0.44,0.11-0.77,0.15c-0.17,0-0.35,0-0.51-0.01c-0.16-0.05-0.32-0.07-0.47-0.14c-0.09-0.05-0.17-0.12-0.24-0.2
						c-0.09-0.06-0.14-0.16-0.18-0.26c-0.04-0.1-0.04-0.21-0.06-0.31l0.03-0.32c0.08-0.21,0.13-0.42,0.27-0.63
						c0.1-0.19,0.18-0.28,0.28-0.42c0.37-0.5,0.77-0.93,1.17-1.35c0.8-0.83,1.6-1.6,2.35-2.36c0.38-0.38,0.74-0.75,1.08-1.13
						c0.33-0.36,0.69-0.82,0.78-1c0.34-0.68-0.71-0.49-1.51-0.24c-1.68,0.58-3.03,1.73-4.24,2.72c-1.19,1.05-2.28,2.01-3.25,2.87
						c-1.96,1.72-3.75,2.84-5.36,2.68c-0.4-0.11-0.42-0.55-0.32-0.8c0.09-0.27,0.21-0.48,0.31-0.63c0.19-0.29,0.32-0.41,0.34-0.4
						c0.02,0.01-0.07,0.16-0.22,0.47c-0.07,0.15-0.15,0.32-0.21,0.53c-0.07,0.19-0.04,0.54,0.29,0.59c0.29,0.04,0.59-0.06,0.96-0.17
						c0.39-0.13,0.8-0.32,1.22-0.54c0.84-0.49,1.71-1.22,2.66-2.09c0.96-0.87,1.99-1.89,3.18-2.96c0.6-0.53,1.24-1.08,1.96-1.6
						c0.71-0.53,1.52-1.01,2.46-1.35c0.46-0.17,0.98-0.27,1.62-0.28c0.35,0,0.68,0.1,0.91,0.34c0.22,0.27,0.18,0.63,0.06,0.95
						c-0.33,0.71-0.66,1.05-1,1.47c-0.35,0.4-0.72,0.79-1.09,1.18c-0.75,0.78-1.54,1.55-2.3,2.38c-0.38,0.41-0.76,0.84-1.08,1.28
						c-0.07,0.1-0.17,0.24-0.21,0.31c-0.03,0.05-0.06,0.11-0.08,0.16c-0.05,0.11-0.01,0.27,0.12,0.3c0.09,0.03,0.18,0.02,0.27,0.01
						c0.11-0.02,0.36-0.06,0.54-0.12c0.4-0.12,0.8-0.27,1.2-0.46c0.8-0.36,1.6-0.81,2.4-1.29c1.59-0.97,3.18-2.1,4.75-3.35
						c3.13-2.5,6.25-5.45,9.09-8.92c1.42-1.73,2.75-3.62,3.99-5.61c1.22-2,2.35-4.14,3.08-6.42c0.34-1.13,0.58-2.34,0.45-3.42
						c-0.1-0.51-0.29-0.96-0.6-1.17c-0.09-0.03-0.18-0.08-0.27-0.13c-0.1-0.03-0.22-0.03-0.33-0.05c-0.13-0.04-0.17,0.01-0.24,0
						c-0.08,0.05-0.17,0.06-0.27,0.13c-0.4,0.25-0.83,0.7-1.19,1.19c-0.37,0.49-0.73,1.02-1.06,1.57c-0.67,1.1-1.28,2.27-1.87,3.46
						c-2.34,4.79-4.41,9.95-6.59,15.24c-1.09,2.65-2.2,5.33-3.32,8.05c-1.14,2.71-2.3,5.45-3.47,8.22
						c-2.3,5.56-4.57,11.28-6.77,17.15c-1.1,2.93-2.19,5.91-3.23,8.91c-0.53,1.5-1.03,3.02-1.52,4.54c-0.49,1.53-0.95,3.04-1.2,4.57
						c-0.06,0.3-0.1,0.59-0.12,0.88c-0.04,0.29-0.05,0.58-0.05,0.86c-0.02,0.56,0.08,1.11,0.25,1.44c0.19,0.32,0.28,0.36,0.7,0.31
						c0.4-0.09,0.89-0.35,1.33-0.68c0.95-0.68,1.63-1.47,2.08-2.5c0.45-1.01,0.67-2.15,0.75-3.3c0.17-2.31-0.27-4.67-0.86-6.94
						c-0.61-2.27-1.46-4.48-2.42-6.61c-1.89-4.17-5.23-7.47-8.71-10.29c-3.51-2.82-7.29-5.22-11.08-7.22l0.82-1.23
						c-0.02-0.02,0.24,0.12,0.39,0.18l0.59,0.2c0.41,0.11,0.82,0.22,1.26,0.3c0.85,0.17,1.73,0.3,2.6,0.39
						c1.75,0.2,3.51,0.28,5.25,0.34c3.48,0.08,6.91,0.03,10.25-0.13c6.69-0.29,13.06-0.88,19.07-1.45c12.03-1.18,22.64-2,31.44-2.57
						c8.79-0.57,15.78-0.88,20.56-1.05c2.39-0.08,4.23-0.12,5.47-0.13C189.66,52.97,190.31,52.99,190.31,53.03z"/>
				</g>
			</g>
		</g>
	</g>
</g>
<g>
</g>
<g>
</g>
<g>
</g>
<g>
</g>
<g>
</g>
<g>
</g>
</svg>
